<?xml version="1.0" encoding="utf-8"?>
<!-- Generator: Adobe Illustrator 26.0.0, SVG Export Plug-In . SVG Version: 6.00 Build 0)  -->
<svg version="1.1" id="Layer_1" xmlns="http://www.w3.org/2000/svg" xmlns:xlink="http://www.w3.org/1999/xlink" x="0px" y="0px"
	 viewBox="0 0 595.28 841.89" style="enable-background:new 0 0 595.28 841.89;" xml:space="preserve">
<style type="text/css">
	.st0{fill:#6DDFE6;}
</style>
<circle class="st0" cx="440.91" cy="519.71" r="1.43"/>
<circle class="st0" cx="341.83" cy="370.27" r="1.43"/>
<circle class="st0" cx="189.93" cy="406.74" r="1.43"/>
<circle class="st0" cx="188.66" cy="370.27" r="1.43"/>
<circle class="st0" cx="191.53" cy="465.81" r="1.43"/>
<circle class="st0" cx="196.38" cy="489.92" r="1.43"/>
<circle class="st0" cx="199.82" cy="480.87" r="1.43"/>
<circle class="st0" cx="183.3" cy="278.15" r="1.43"/>
<circle class="st0" cx="191.37" cy="429.81" r="1.43"/>
<circle class="st0" cx="314.79" cy="378.68" r="1.43"/>
<circle class="st0" cx="398.37" cy="323.36" r="1.43"/>
<circle class="st0" cx="252.58" cy="443.02" r="1.43"/>
<circle class="st0" cx="217.39" cy="475.05" r="1.43"/>
<circle class="st0" cx="190.09" cy="479.39" r="1.43"/>
<circle class="st0" cx="306.46" cy="421.94" r="1.43"/>
<circle class="st0" cx="262.19" cy="420.51" r="1.43"/>
<circle class="st0" cx="165.14" cy="431.42" r="1.43"/>
<circle class="st0" cx="183.3" cy="465.8" r="1.43"/>
<circle class="st0" cx="284.29" cy="383.16" r="1.43"/>
<circle class="st0" cx="222.72" cy="399.62" r="1.43"/>
<circle class="st0" cx="434.71" cy="365.56" r="1.43"/>
<circle class="st0" cx="440.91" cy="289.41" r="1.43"/>
<circle class="st0" cx="217.39" cy="417.65" r="1.43"/>
<circle class="st0" cx="199.82" cy="473.62" r="1.43"/>
<circle class="st0" cx="202.92" cy="460.52" r="1.43"/>
<circle class="st0" cx="226.4" cy="349.74" r="1.43"/>
<circle class="st0" cx="284.29" cy="253.08" r="1.43"/>
<circle class="st0" cx="254.67" cy="333.38" r="1.43"/>
<circle class="st0" cx="321.32" cy="543.68" r="1.43"/>
<circle class="st0" cx="186.82" cy="564.92" r="1.43"/>
<circle class="st0" cx="330.95" cy="378.68" r="1.43"/>
<circle class="st0" cx="376.39" cy="414" r="1.43"/>
<circle class="st0" cx="285.72" cy="522.98" r="1.43"/>
<circle class="st0" cx="251.15" cy="515.41" r="1.43"/>
<circle class="st0" cx="228.92" cy="543.68" r="1.43"/>
<circle class="st0" cx="214.17" cy="519.9" r="1.43"/>
<circle class="st0" cx="260.95" cy="519.18" r="1.43"/>
<circle class="st0" cx="340.23" cy="527.37" r="1.43"/>
<circle class="st0" cx="429.27" cy="437.14" r="1.43"/>
<circle class="st0" cx="189.93" cy="533.9" r="1.43"/>
<circle class="st0" cx="404.79" cy="645.22" r="1.43"/>
<circle class="st0" cx="348.95" cy="641.66" r="1.43"/>
<circle class="st0" cx="294.8" cy="528.8" r="1.43"/>
<circle class="st0" cx="352.24" cy="303.16" r="1.43"/>
<circle class="st0" cx="238.1" cy="378.68" r="1.43"/>
<circle class="st0" cx="328.09" cy="434.28" r="1.43"/>
<circle class="st0" cx="396.95" cy="362.86" r="1.43"/>
<circle class="st0" cx="302.16" cy="444.55" r="1.43"/>
<circle class="st0" cx="314.79" cy="391.69" r="1.43"/>
<circle class="st0" cx="294.8" cy="371.7" r="1.43"/>
<circle class="st0" cx="268.1" cy="464.37" r="1.43"/>
<circle class="st0" cx="226.4" cy="479.39" r="1.43"/>
<circle class="st0" cx="435.42" cy="340.26" r="1.43"/>
<circle class="st0" cx="414.34" cy="229.11" r="1.43"/>
<circle class="st0" cx="323.56" cy="334.81" r="1.43"/>
<circle class="st0" cx="305.02" cy="196.78" r="1.43"/>
<circle class="st0" cx="372.56" cy="366.8" r="1.43"/>
<circle class="st0" cx="329.52" cy="524.41" r="1.43"/>
<circle class="st0" cx="303.59" cy="595.13" r="1.43"/>
<circle class="st0" cx="244.86" cy="527.37" r="1.43"/>
<circle class="st0" cx="218.65" cy="504.06" r="1.43"/>
<circle class="st0" cx="209.82" cy="485.56" r="1.43"/>
<circle class="st0" cx="318.24" cy="610.55" r="1.43"/>
<circle class="st0" cx="257.77" cy="601.09" r="1.43"/>
<circle class="st0" cx="259.33" cy="628.15" r="1.43"/>
<circle class="st0" cx="259.32" cy="543.68" r="1.43"/>
<circle class="st0" cx="353.69" cy="361.43" r="1.43"/>
<circle class="st0" cx="425.15" cy="465.8" r="1.43"/>
<circle class="st0" cx="368.23" cy="535.33" r="1.43"/>
<circle class="st0" cx="443.77" cy="556.22" r="1.43"/>
<circle class="st0" cx="412.15" cy="528.8" r="1.43"/>
<circle class="st0" cx="381.93" cy="518.28" r="1.43"/>
<circle class="st0" cx="380.5" cy="602.52" r="1.43"/>
<circle class="st0" cx="435.39" cy="637.37" r="1.43"/>
<circle class="st0" cx="398.38" cy="581.46" r="1.43"/>
<circle class="st0" cx="445.21" cy="602.52" r="1.43"/>
<circle class="st0" cx="294.8" cy="398.19" r="1.43"/>
<circle class="st0" cx="325.22" cy="578.62" r="1.43"/>
<circle class="st0" cx="165.14" cy="528.8" r="1.43"/>
<circle class="st0" cx="150.79" cy="549.34" r="1.43"/>
<circle class="st0" cx="191.36" cy="438.57" r="1.43"/>
</svg>
